<svg id="visual" viewBox="0 0 900 600" width="900" height="600" xmlns="http://www.w3.org/2000/svg" xmlns:xlink="http://www.w3.org/1999/xlink" version="1.1"><rect x="0" y="0" width="900" height="600" fill="#001122"></rect><path d="M0 352L12.5 364.3C25 376.7 50 401.3 75 404.2C100 407 125 388 150 382.8C175 377.7 200 386.3 225 398.2C250 410 275 425 300 422.5C325 420 350 400 375 395.2C400 390.3 425 400.7 450 397C475 393.3 500 375.7 525 374.5C550 373.3 575 388.7 600 402.7C625 416.7 650 429.3 675 427.8C700 426.3 725 410.7 750 409.5C775 408.3 800 421.7 825 426.8C850 432 875 429 887.5 427.5L900 426L900 601L887.5 601C875 601 850 601 825 601C800 601 775 601 750 601C725 601 700 601 675 601C650 601 625 601 600 601C575 601 550 601 525 601C500 601 475 601 450 601C425 601 400 601 375 601C350 601 325 601 300 601C275 601 250 601 225 601C200 601 175 601 150 601C125 601 100 601 75 601C50 601 25 601 12.5 601L0 601Z" fill="#f91065"></path><path d="M0 400L12.5 399.2C25 398.3 50 396.7 75 402.5C100 408.3 125 421.7 150 429.7C175 437.7 200 440.3 225 446C250 451.7 275 460.3 300 461.7C325 463 350 457 375 447.2C400 437.3 425 423.7 450 425.8C475 428 500 446 525 451.3C550 456.7 575 449.3 600 446.2C625 443 650 444 675 435C700 426 725 407 750 397.2C775 387.3 800 386.7 825 387.5C850 388.3 875 390.7 887.5 391.8L900 393L900 601L887.5 601C875 601 850 601 825 601C800 601 775 601 750 601C725 601 700 601 675 601C650 601 625 601 600 601C575 601 550 601 525 601C500 601 475 601 450 601C425 601 400 601 375 601C350 601 325 601 300 601C275 601 250 601 225 601C200 601 175 601 150 601C125 601 100 601 75 601C50 601 25 601 12.5 601L0 601Z" fill="#cf0465"></path><path d="M0 470L12.5 468.7C25 467.3 50 464.7 75 458.5C100 452.3 125 442.7 150 441.2C175 439.7 200 446.3 225 456.5C250 466.7 275 480.3 300 483.3C325 486.3 350 478.7 375 474.8C400 471 425 471 450 468.3C475 465.7 500 460.3 525 453.5C550 446.7 575 438.3 600 439.3C625 440.3 650 450.7 675 458.3C700 466 725 471 750 469.5C775 468 800 460 825 462.5C850 465 875 478 887.5 484.5L900 491L900 601L887.5 601C875 601 850 601 825 601C800 601 775 601 750 601C725 601 700 601 675 601C650 601 625 601 600 601C575 601 550 601 525 601C500 601 475 601 450 601C425 601 400 601 375 601C350 601 325 601 300 601C275 601 250 601 225 601C200 601 175 601 150 601C125 601 100 601 75 601C50 601 25 601 12.5 601L0 601Z" fill="#a4075f"></path><path d="M0 471L12.5 477.3C25 483.7 50 496.3 75 502.7C100 509 125 509 150 510.7C175 512.3 200 515.7 225 511.7C250 507.7 275 496.3 300 494C325 491.7 350 498.3 375 503.7C400 509 425 513 450 511C475 509 500 501 525 494.8C550 488.7 575 484.3 600 480.8C625 477.3 650 474.7 675 478.5C700 482.3 725 492.7 750 496.5C775 500.3 800 497.7 825 494.7C850 491.7 875 488.3 887.5 486.7L900 485L900 601L887.5 601C875 601 850 601 825 601C800 601 775 601 750 601C725 601 700 601 675 601C650 601 625 601 600 601C575 601 550 601 525 601C500 601 475 601 450 601C425 601 400 601 375 601C350 601 325 601 300 601C275 601 250 601 225 601C200 601 175 601 150 601C125 601 100 601 75 601C50 601 25 601 12.5 601L0 601Z" fill="#7a0c54"></path><path d="M0 536L12.5 535C25 534 50 532 75 529.2C100 526.3 125 522.7 150 526C175 529.3 200 539.7 225 542.5C250 545.3 275 540.7 300 532.7C325 524.7 350 513.3 375 515.8C400 518.3 425 534.7 450 536.5C475 538.3 500 525.7 525 519.7C550 513.7 575 514.3 600 518.8C625 523.3 650 531.7 675 533C700 534.3 725 528.7 750 527.3C775 526 800 529 825 531.5C850 534 875 536 887.5 537L900 538L900 601L887.5 601C875 601 850 601 825 601C800 601 775 601 750 601C725 601 700 601 675 601C650 601 625 601 600 601C575 601 550 601 525 601C500 601 475 601 450 601C425 601 400 601 375 601C350 601 325 601 300 601C275 601 250 601 225 601C200 601 175 601 150 601C125 601 100 601 75 601C50 601 25 601 12.5 601L0 601Z" fill="#530d44"></path><path d="M0 557L12.5 555.7C25 554.3 50 551.7 75 550.3C100 549 125 549 150 548.2C175 547.3 200 545.7 225 548C250 550.3 275 556.7 300 556.7C325 556.7 350 550.3 375 546.5C400 542.7 425 541.3 450 542.2C475 543 500 546 525 550.5C550 555 575 561 600 559.8C625 558.7 650 550.3 675 545.2C700 540 725 538 750 540.5C775 543 800 550 825 551.2C850 552.3 875 547.7 887.5 545.3L900 543L900 601L887.5 601C875 601 850 601 825 601C800 601 775 601 750 601C725 601 700 601 675 601C650 601 625 601 600 601C575 601 550 601 525 601C500 601 475 601 450 601C425 601 400 601 375 601C350 601 325 601 300 601C275 601 250 601 225 601C200 601 175 601 150 601C125 601 100 601 75 601C50 601 25 601 12.5 601L0 601Z" fill="#300930"></path></svg>