<svg id="visual" viewBox="0 0 900 600" width="900" height="600" xmlns="http://www.w3.org/2000/svg" xmlns:xlink="http://www.w3.org/1999/xlink" version="1.1"><rect x="0" y="0" width="900" height="600" fill="#001220"></rect><defs><linearGradient id="grad1_0" x1="33.3%" y1="100%" x2="100%" y2="0%"><stop offset="20%" stop-color="#001220" stop-opacity="1"></stop><stop offset="80%" stop-color="#001220" stop-opacity="1"></stop></linearGradient></defs><defs><linearGradient id="grad2_0" x1="0%" y1="100%" x2="66.7%" y2="0%"><stop offset="20%" stop-color="#001220" stop-opacity="1"></stop><stop offset="80%" stop-color="#001220" stop-opacity="1"></stop></linearGradient></defs><g transform="translate(900, 600)"><path d="M-324.5 0C-309.5 -52.7 -294.5 -105.3 -269.3 -155.5C-244.2 -205.7 -208.8 -253.3 -162.2 -281C-115.7 -308.8 -57.8 -316.6 0 -324.5L0 0Z" fill="#a53662"></path></g><g transform="translate(0, 0)"><path d="M324.5 0C317.9 60 311.3 120.1 281 162.2C250.7 204.4 196.8 228.8 146 252.9C95.2 276.9 47.6 300.7 0 324.5L0 0Z" fill="#a53662"></path></g></svg>