<svg id="visual" viewBox="0 0 900 600" width="900" height="600" xmlns="http://www.w3.org/2000/svg" xmlns:xlink="http://www.w3.org/1999/xlink" version="1.1"><rect x="0" y="0" width="900" height="600" fill="#001220"></rect><defs><linearGradient id="grad1_0" x1="33.3%" y1="100%" x2="100%" y2="0%"><stop offset="20%" stop-color="#001220" stop-opacity="1"></stop><stop offset="80%" stop-color="#001220" stop-opacity="1"></stop></linearGradient></defs><defs><linearGradient id="grad2_0" x1="0%" y1="100%" x2="66.7%" y2="0%"><stop offset="20%" stop-color="#001220" stop-opacity="1"></stop><stop offset="80%" stop-color="#001220" stop-opacity="1"></stop></linearGradient></defs><g transform="translate(900, 600)"><path d="M-378.6 0C-354.2 -57.5 -329.9 -115 -301.4 -174C-272.9 -233 -240.2 -293.5 -189.3 -327.9C-138.4 -362.2 -69.2 -370.4 0 -378.6L0 0Z" fill="#571C34"></path></g><g transform="translate(0, 0)"><path d="M378.6 0C342.2 50.6 305.9 101.1 278.9 161C251.9 220.9 234.2 290 189.3 327.9C144.4 365.7 72.2 372.1 0 378.6L0 0Z" fill="#571C34"></path></g></svg>