<svg id="visual" viewBox="0 0 1920 1080" width="1920" height="1080" xmlns="http://www.w3.org/2000/svg" xmlns:xlink="http://www.w3.org/1999/xlink" version="1.1"><rect x="0" y="0" width="1920" height="1080" fill="#001220"></rect><defs><linearGradient id="grad1_0" x1="43.8%" y1="0%" x2="100%" y2="100%"><stop offset="14.444444444444446%" stop-color="#001220" stop-opacity="1"></stop><stop offset="85.55555555555554%" stop-color="#001220" stop-opacity="1"></stop></linearGradient></defs><defs><linearGradient id="grad2_0" x1="0%" y1="0%" x2="56.3%" y2="100%"><stop offset="14.444444444444446%" stop-color="#001220" stop-opacity="1"></stop><stop offset="85.55555555555554%" stop-color="#001220" stop-opacity="1"></stop></linearGradient></defs><g transform="translate(1920, 0)"><path d="M0 810C-133.3 775.7 -266.5 741.3 -391.5 678.1C-516.5 614.9 -633.1 522.8 -701.5 405C-769.8 287.2 -789.9 143.6 -810 0L0 0Z" fill="#FF6F61"></path></g><g transform="translate(0, 1080)"><path d="M0 -810C114.3 -742.9 228.7 -675.7 356 -616.6C483.3 -557.5 623.6 -506.4 701.5 -405C779.3 -303.6 794.7 -151.8 810 0L0 0Z" fill="#FF6F61"></path></g></svg>