<svg id="visual" viewBox="0 0 1920 1080" width="1920" height="1080" xmlns="http://www.w3.org/2000/svg" xmlns:xlink="http://www.w3.org/1999/xlink" version="1.1"><rect x="0" y="0" width="1920" height="1080" fill="#001220"></rect><path d="M0 682L64 709.5C128 737 256 792 384 815C512 838 640 829 768 802.7C896 776.3 1024 732.7 1152 724.3C1280 716 1408 743 1536 761.5C1664 780 1792 790 1856 795L1920 800L1920 1081L1856 1081C1792 1081 1664 1081 1536 1081C1408 1081 1280 1081 1152 1081C1024 1081 896 1081 768 1081C640 1081 512 1081 384 1081C256 1081 128 1081 64 1081L0 1081Z" fill="#c62368"></path><path d="M0 832L64 817.5C128 803 256 774 384 757C512 740 640 735 768 726.5C896 718 1024 706 1152 711.8C1280 717.7 1408 741.3 1536 765.5C1664 789.7 1792 814.3 1856 826.7L1920 839L1920 1081L1856 1081C1792 1081 1664 1081 1536 1081C1408 1081 1280 1081 1152 1081C1024 1081 896 1081 768 1081C640 1081 512 1081 384 1081C256 1081 128 1081 64 1081L0 1081Z" fill="#b81e68"></path><path d="M0 904L64 902C128 900 256 896 384 897.2C512 898.3 640 904.7 768 906.7C896 908.7 1024 906.3 1152 897.3C1280 888.3 1408 872.7 1536 871.2C1664 869.7 1792 882.3 1856 888.7L1920 895L1920 1081L1856 1081C1792 1081 1664 1081 1536 1081C1408 1081 1280 1081 1152 1081C1024 1081 896 1081 768 1081C640 1081 512 1081 384 1081C256 1081 128 1081 64 1081L0 1081Z" fill="#a91967"></path><path d="M0 847L64 857.3C128 867.7 256 888.3 384 880.8C512 873.3 640 837.7 768 816.3C896 795 1024 788 1152 799.3C1280 810.7 1408 840.3 1536 841.3C1664 842.3 1792 814.7 1856 800.8L1920 787L1920 1081L1856 1081C1792 1081 1664 1081 1536 1081C1408 1081 1280 1081 1152 1081C1024 1081 896 1081 768 1081C640 1081 512 1081 384 1081C256 1081 128 1081 64 1081L0 1081Z" fill="#9a1666"></path><path d="M0 849L64 850.5C128 852 256 855 384 854C512 853 640 848 768 843.2C896 838.3 1024 833.7 1152 848.8C1280 864 1408 899 1536 896.7C1664 894.3 1792 854.7 1856 834.8L1920 815L1920 1081L1856 1081C1792 1081 1664 1081 1536 1081C1408 1081 1280 1081 1152 1081C1024 1081 896 1081 768 1081C640 1081 512 1081 384 1081C256 1081 128 1081 64 1081L0 1081Z" fill="#8b1463"></path><path d="M0 952L64 951.7C128 951.3 256 950.7 384 935.5C512 920.3 640 890.7 768 892.7C896 894.7 1024 928.3 1152 936C1280 943.7 1408 925.3 1536 928.8C1664 932.3 1792 957.7 1856 970.3L1920 983L1920 1081L1856 1081C1792 1081 1664 1081 1536 1081C1408 1081 1280 1081 1152 1081C1024 1081 896 1081 768 1081C640 1081 512 1081 384 1081C256 1081 128 1081 64 1081L0 1081Z" fill="#7d1260"></path><path d="M0 892L64 911.3C128 930.7 256 969.3 384 969.3C512 969.3 640 930.7 768 926.2C896 921.7 1024 951.3 1152 957.2C1280 963 1408 945 1536 933.2C1664 921.3 1792 915.7 1856 912.8L1920 910L1920 1081L1856 1081C1792 1081 1664 1081 1536 1081C1408 1081 1280 1081 1152 1081C1024 1081 896 1081 768 1081C640 1081 512 1081 384 1081C256 1081 128 1081 64 1081L0 1081Z" fill="#6e115d"></path><path d="M0 1005L64 997.3C128 989.7 256 974.3 384 961.2C512 948 640 937 768 943.8C896 950.7 1024 975.3 1152 976C1280 976.7 1408 953.3 1536 957.8C1664 962.3 1792 994.7 1856 1010.8L1920 1027L1920 1081L1856 1081C1792 1081 1664 1081 1536 1081C1408 1081 1280 1081 1152 1081C1024 1081 896 1081 768 1081C640 1081 512 1081 384 1081C256 1081 128 1081 64 1081L0 1081Z" fill="#5f1059"></path><path d="M0 973L64 986.5C128 1000 256 1027 384 1040.3C512 1053.7 640 1053.3 768 1045C896 1036.7 1024 1020.3 1152 1005.2C1280 990 1408 976 1536 976.3C1664 976.7 1792 991.3 1856 998.7L1920 1006L1920 1081L1856 1081C1792 1081 1664 1081 1536 1081C1408 1081 1280 1081 1152 1081C1024 1081 896 1081 768 1081C640 1081 512 1081 384 1081C256 1081 128 1081 64 1081L0 1081Z" fill="#500e54"></path><path d="M0 1002L64 1004.5C128 1007 256 1012 384 1021.3C512 1030.7 640 1044.3 768 1048.7C896 1053 1024 1048 1152 1044C1280 1040 1408 1037 1536 1038.2C1664 1039.3 1792 1044.7 1856 1047.3L1920 1050L1920 1081L1856 1081C1792 1081 1664 1081 1536 1081C1408 1081 1280 1081 1152 1081C1024 1081 896 1081 768 1081C640 1081 512 1081 384 1081C256 1081 128 1081 64 1081L0 1081Z" fill="#420d4e"></path></svg>