<svg id="visual" viewBox="0 0 900 600" width="900" height="600" xmlns="http://www.w3.org/2000/svg" xmlns:xlink="http://www.w3.org/1999/xlink" version="1.1"><rect x="0" y="0" width="900" height="600" fill="#0b0013"></rect><path d="M0 450L129 450L129 440L257 440L257 463L386 463L386 449L514 449L514 453L643 453L643 439L771 439L771 410L900 410L900 451L900 601L900 601L771 601L771 601L643 601L643 601L514 601L514 601L386 601L386 601L257 601L257 601L129 601L129 601L0 601Z" fill="#9900ff"></path><path d="M0 463L129 463L129 504L257 504L257 460L386 460L386 482L514 482L514 457L643 457L643 466L771 466L771 494L900 494L900 517L900 601L900 601L771 601L771 601L643 601L643 601L514 601L514 601L386 601L386 601L257 601L257 601L129 601L129 601L0 601Z" fill="#7700c6"></path><path d="M0 514L129 514L129 532L257 532L257 523L386 523L386 537L514 537L514 533L643 533L643 519L771 519L771 552L900 552L900 531L900 601L900 601L771 601L771 601L643 601L643 601L514 601L514 601L386 601L386 601L257 601L257 601L129 601L129 601L0 601Z" fill="#560090"></path></svg>