<svg id="visual" viewBox="0 0 900 600" width="900" height="600" xmlns="http://www.w3.org/2000/svg" xmlns:xlink="http://www.w3.org/1999/xlink" version="1.1"><rect x="0" y="0" width="900" height="600" fill="#1F2730"></rect><defs><linearGradient id="grad1_0" x1="33.3%" y1="100%" x2="100%" y2="0%"><stop offset="20%" stop-color="#1f2730" stop-opacity="1"></stop><stop offset="80%" stop-color="#1f2730" stop-opacity="1"></stop></linearGradient></defs><defs><linearGradient id="grad2_0" x1="0%" y1="100%" x2="66.7%" y2="0%"><stop offset="20%" stop-color="#1f2730" stop-opacity="1"></stop><stop offset="80%" stop-color="#1f2730" stop-opacity="1"></stop></linearGradient></defs><g transform="translate(900, 600)"><path d="M-243.4 0C-214.5 -29.3 -185.5 -58.6 -168.9 -97.5C-152.2 -136.4 -147.8 -184.9 -121.7 -210.8C-95.6 -236.7 -47.8 -240 0 -243.4L0 0Z" fill="#FF6F61"></path></g><g transform="translate(0, 0)"><path d="M243.4 0C224.6 35.2 205.9 70.3 187.9 108.5C170 146.7 152.9 187.8 121.7 210.8C90.5 233.7 45.3 238.6 0 243.4L0 0Z" fill="#FF6F61"></path></g></svg>