<svg id="visual" viewBox="0 0 900 600" width="900" height="600" xmlns="http://www.w3.org/2000/svg" xmlns:xlink="http://www.w3.org/1999/xlink" version="1.1"><rect x="0" y="0" width="900" height="600" fill="#001220"></rect><defs><linearGradient id="grad1_0" x1="33.3%" y1="100%" x2="100%" y2="0%"><stop offset="20%" stop-color="#001220" stop-opacity="1"></stop><stop offset="80%" stop-color="#001220" stop-opacity="1"></stop></linearGradient></defs><defs><linearGradient id="grad2_0" x1="0%" y1="100%" x2="66.7%" y2="0%"><stop offset="20%" stop-color="#001220" stop-opacity="1"></stop><stop offset="80%" stop-color="#001220" stop-opacity="1"></stop></linearGradient></defs><g transform="translate(900, 600)"><path d="M-378.6 0C-362.1 -62 -345.6 -124.1 -316.1 -182.5C-286.6 -240.9 -244.1 -295.8 -189.3 -327.9C-134.4 -359.9 -67.2 -369.3 0 -378.6L0 0Z" fill="#FF6F61"></path></g><g transform="translate(0, 0)"><path d="M378.6 0C372.1 72.1 365.5 144.1 327.9 189.3C290.2 234.4 221.3 252.7 161.5 279.7C101.7 306.8 50.8 342.7 0 378.6L0 0Z" fill="#FF6F61"></path></g></svg>