<svg id="visual" viewBox="0 0 900 600" width="900" height="600" xmlns="http://www.w3.org/2000/svg" xmlns:xlink="http://www.w3.org/1999/xlink" version="1.1"><rect x="0" y="0" width="900" height="600" fill="#000000"></rect><path d="M0 321L21.5 330.3C43 339.7 86 358.3 128.8 352.5C171.7 346.7 214.3 316.3 257.2 298.8C300 281.3 343 276.7 385.8 289.8C428.7 303 471.3 334 514.2 332.2C557 330.3 600 295.7 642.8 286.8C685.7 278 728.3 295 771.2 294C814 293 857 274 878.5 264.5L900 255L900 601L878.5 601C857 601 814 601 771.2 601C728.3 601 685.7 601 642.8 601C600 601 557 601 514.2 601C471.3 601 428.7 601 385.8 601C343 601 300 601 257.2 601C214.3 601 171.7 601 128.8 601C86 601 43 601 21.5 601L0 601Z" fill="#fa6983"></path><path d="M0 315L21.5 324C43 333 86 351 128.8 365.7C171.7 380.3 214.3 391.7 257.2 385.5C300 379.3 343 355.7 385.8 359.2C428.7 362.7 471.3 393.3 514.2 396.2C557 399 600 374 642.8 370C685.7 366 728.3 383 771.2 389.3C814 395.7 857 391.3 878.5 389.2L900 387L900 601L878.5 601C857 601 814 601 771.2 601C728.3 601 685.7 601 642.8 601C600 601 557 601 514.2 601C471.3 601 428.7 601 385.8 601C343 601 300 601 257.2 601C214.3 601 171.7 601 128.8 601C86 601 43 601 21.5 601L0 601Z" fill="#cf5471"></path><path d="M0 441L21.5 429.8C43 418.7 86 396.3 128.8 399.5C171.7 402.7 214.3 431.3 257.2 438.3C300 445.3 343 430.7 385.8 431.8C428.7 433 471.3 450 514.2 456.7C557 463.3 600 459.7 642.8 460.7C685.7 461.7 728.3 467.3 771.2 454.2C814 441 857 409 878.5 393L900 377L900 601L878.5 601C857 601 814 601 771.2 601C728.3 601 685.7 601 642.8 601C600 601 557 601 514.2 601C471.3 601 428.7 601 385.8 601C343 601 300 601 257.2 601C214.3 601 171.7 601 128.8 601C86 601 43 601 21.5 601L0 601Z" fill="#a5405d"></path><path d="M0 514L21.5 512.7C43 511.3 86 508.7 128.8 508.7C171.7 508.7 214.3 511.3 257.2 511.2C300 511 343 508 385.8 495C428.7 482 471.3 459 514.2 455.7C557 452.3 600 468.7 642.8 482.3C685.7 496 728.3 507 771.2 499.5C814 492 857 466 878.5 453L900 440L900 601L878.5 601C857 601 814 601 771.2 601C728.3 601 685.7 601 642.8 601C600 601 557 601 514.2 601C471.3 601 428.7 601 385.8 601C343 601 300 601 257.2 601C214.3 601 171.7 601 128.8 601C86 601 43 601 21.5 601L0 601Z" fill="#7d2d49"></path><path d="M0 535L21.5 534.7C43 534.3 86 533.7 128.8 528C171.7 522.3 214.3 511.7 257.2 513.5C300 515.3 343 529.7 385.8 529.8C428.7 530 471.3 516 514.2 507.8C557 499.7 600 497.3 642.8 499.7C685.7 502 728.3 509 771.2 512.8C814 516.7 857 517.3 878.5 517.7L900 518L900 601L878.5 601C857 601 814 601 771.2 601C728.3 601 685.7 601 642.8 601C600 601 557 601 514.2 601C471.3 601 428.7 601 385.8 601C343 601 300 601 257.2 601C214.3 601 171.7 601 128.8 601C86 601 43 601 21.5 601L0 601Z" fill="#571c34"></path></svg>