<svg id="visual" viewBox="0 0 1920 1080" width="1920" height="1080" xmlns="http://www.w3.org/2000/svg" xmlns:xlink="http://www.w3.org/1999/xlink" version="1.1"><rect x="0" y="0" width="1920" height="1080" fill="#000000"></rect><path d="M0 729L45.7 730C91.3 731 182.7 733 274.2 726C365.7 719 457.3 703 548.8 713C640.3 723 731.7 759 823 776.7C914.3 794.3 1005.7 793.7 1097 792.3C1188.3 791 1279.7 789 1371.2 790.3C1462.7 791.7 1554.3 796.3 1645.8 780.2C1737.3 764 1828.7 727 1874.3 708.5L1920 690L1920 1081L1874.3 1081C1828.7 1081 1737.3 1081 1645.8 1081C1554.3 1081 1462.7 1081 1371.2 1081C1279.7 1081 1188.3 1081 1097 1081C1005.7 1081 914.3 1081 823 1081C731.7 1081 640.3 1081 548.8 1081C457.3 1081 365.7 1081 274.2 1081C182.7 1081 91.3 1081 45.7 1081L0 1081Z" fill="#ee6fc7"></path><path d="M0 771L45.7 763.2C91.3 755.3 182.7 739.7 274.2 750C365.7 760.3 457.3 796.7 548.8 820C640.3 843.3 731.7 853.7 823 850C914.3 846.3 1005.7 828.7 1097 811.5C1188.3 794.3 1279.7 777.7 1371.2 781.5C1462.7 785.3 1554.3 809.7 1645.8 810.3C1737.3 811 1828.7 788 1874.3 776.5L1920 765L1920 1081L1874.3 1081C1828.7 1081 1737.3 1081 1645.8 1081C1554.3 1081 1462.7 1081 1371.2 1081C1279.7 1081 1188.3 1081 1097 1081C1005.7 1081 914.3 1081 823 1081C731.7 1081 640.3 1081 548.8 1081C457.3 1081 365.7 1081 274.2 1081C182.7 1081 91.3 1081 45.7 1081L0 1081Z" fill="#df4fcf"></path><path d="M0 874L45.7 877.5C91.3 881 182.7 888 274.2 876C365.7 864 457.3 833 548.8 835.8C640.3 838.7 731.7 875.3 823 876.3C914.3 877.3 1005.7 842.7 1097 835.7C1188.3 828.7 1279.7 849.3 1371.2 860.7C1462.7 872 1554.3 874 1645.8 865.5C1737.3 857 1828.7 838 1874.3 828.5L1920 819L1920 1081L1874.3 1081C1828.7 1081 1737.3 1081 1645.8 1081C1554.3 1081 1462.7 1081 1371.2 1081C1279.7 1081 1188.3 1081 1097 1081C1005.7 1081 914.3 1081 823 1081C731.7 1081 640.3 1081 548.8 1081C457.3 1081 365.7 1081 274.2 1081C182.7 1081 91.3 1081 45.7 1081L0 1081Z" fill="#c82fdb"></path><path d="M0 929L45.7 924C91.3 919 182.7 909 274.2 913C365.7 917 457.3 935 548.8 940.2C640.3 945.3 731.7 937.7 823 930.2C914.3 922.7 1005.7 915.3 1097 908.8C1188.3 902.3 1279.7 896.7 1371.2 895.7C1462.7 894.7 1554.3 898.3 1645.8 905.5C1737.3 912.7 1828.7 923.3 1874.3 928.7L1920 934L1920 1081L1874.3 1081C1828.7 1081 1737.3 1081 1645.8 1081C1554.3 1081 1462.7 1081 1371.2 1081C1279.7 1081 1188.3 1081 1097 1081C1005.7 1081 914.3 1081 823 1081C731.7 1081 640.3 1081 548.8 1081C457.3 1081 365.7 1081 274.2 1081C182.7 1081 91.3 1081 45.7 1081L0 1081Z" fill="#a40cec"></path><path d="M0 990L45.7 983.3C91.3 976.7 182.7 963.3 274.2 965.8C365.7 968.3 457.3 986.7 548.8 992.5C640.3 998.3 731.7 991.7 823 994.8C914.3 998 1005.7 1011 1097 1006.5C1188.3 1002 1279.7 980 1371.2 976.7C1462.7 973.3 1554.3 988.7 1645.8 990.3C1737.3 992 1828.7 980 1874.3 974L1920 968L1920 1081L1874.3 1081C1828.7 1081 1737.3 1081 1645.8 1081C1554.3 1081 1462.7 1081 1371.2 1081C1279.7 1081 1188.3 1081 1097 1081C1005.7 1081 914.3 1081 823 1081C731.7 1081 640.3 1081 548.8 1081C457.3 1081 365.7 1081 274.2 1081C182.7 1081 91.3 1081 45.7 1081L0 1081Z" fill="#6600ff"></path></svg>