<svg id="visual" viewBox="0 0 1920 1080" width="1920" height="1080" xmlns="http://www.w3.org/2000/svg" xmlns:xlink="http://www.w3.org/1999/xlink" version="1.1"><rect x="0" y="0" width="1920" height="1080" fill="#000000"></rect><defs><linearGradient id="grad1_0" x1="43.8%" y1="0%" x2="100%" y2="100%"><stop offset="14.444444444444446%" stop-color="#000000" stop-opacity="1"></stop><stop offset="85.55555555555554%" stop-color="#000000" stop-opacity="1"></stop></linearGradient></defs><defs><linearGradient id="grad2_0" x1="0%" y1="0%" x2="56.3%" y2="100%"><stop offset="14.444444444444446%" stop-color="#000000" stop-opacity="1"></stop><stop offset="85.55555555555554%" stop-color="#000000" stop-opacity="1"></stop></linearGradient></defs><g transform="translate(1920, 0)"><path d="M0 810C-148.2 792.6 -296.4 775.2 -405 701.5C-513.6 627.8 -582.6 497.8 -643.5 371.5C-704.4 245.2 -757.2 122.6 -810 0L0 0Z" fill="#715DF2"></path></g><g transform="translate(0, 1080)"><path d="M0 -810C122.1 -756.3 244.1 -702.5 370.5 -641.7C496.9 -580.9 627.5 -513.1 701.5 -405C775.4 -296.9 792.7 -148.4 810 0L0 0Z" fill="#715DF2"></path></g></svg>