<svg id="visual" viewBox="0 0 900 600" width="900" height="600" xmlns="http://www.w3.org/2000/svg" xmlns:xlink="http://www.w3.org/1999/xlink" version="1.1"><rect x="0" y="0" width="900" height="600" fill="#1e2730"></rect><path d="M0 346L21.5 350.7C43 355.3 86 364.7 128.8 370.7C171.7 376.7 214.3 379.3 257.2 376.7C300 374 343 366 385.8 358.7C428.7 351.3 471.3 344.7 514.2 328C557 311.3 600 284.7 642.8 276.8C685.7 269 728.3 280 771.2 294.7C814 309.3 857 327.7 878.5 336.8L900 346L900 601L878.5 601C857 601 814 601 771.2 601C728.3 601 685.7 601 642.8 601C600 601 557 601 514.2 601C471.3 601 428.7 601 385.8 601C343 601 300 601 257.2 601C214.3 601 171.7 601 128.8 601C86 601 43 601 21.5 601L0 601Z" fill="#fa7268"></path><path d="M0 406L21.5 409.2C43 412.3 86 418.7 128.8 403.7C171.7 388.7 214.3 352.3 257.2 344.3C300 336.3 343 356.7 385.8 368.5C428.7 380.3 471.3 383.7 514.2 375.7C557 367.7 600 348.3 642.8 345.8C685.7 343.3 728.3 357.7 771.2 362.7C814 367.7 857 363.3 878.5 361.2L900 359L900 601L878.5 601C857 601 814 601 771.2 601C728.3 601 685.7 601 642.8 601C600 601 557 601 514.2 601C471.3 601 428.7 601 385.8 601C343 601 300 601 257.2 601C214.3 601 171.7 601 128.8 601C86 601 43 601 21.5 601L0 601Z" fill="#c84d65"></path><path d="M0 378L21.5 383.8C43 389.7 86 401.3 128.8 414.5C171.7 427.7 214.3 442.3 257.2 452.5C300 462.7 343 468.3 385.8 459.8C428.7 451.3 471.3 428.7 514.2 418.7C557 408.7 600 411.3 642.8 407.3C685.7 403.3 728.3 392.7 771.2 390.5C814 388.3 857 394.7 878.5 397.8L900 401L900 601L878.5 601C857 601 814 601 771.2 601C728.3 601 685.7 601 642.8 601C600 601 557 601 514.2 601C471.3 601 428.7 601 385.8 601C343 601 300 601 257.2 601C214.3 601 171.7 601 128.8 601C86 601 43 601 21.5 601L0 601Z" fill="#90305b"></path><path d="M0 507L21.5 508.5C43 510 86 513 128.8 506.8C171.7 500.7 214.3 485.3 257.2 475.3C300 465.3 343 460.7 385.8 462.5C428.7 464.3 471.3 472.7 514.2 481.7C557 490.7 600 500.3 642.8 500.7C685.7 501 728.3 492 771.2 481.8C814 471.7 857 460.3 878.5 454.7L900 449L900 601L878.5 601C857 601 814 601 771.2 601C728.3 601 685.7 601 642.8 601C600 601 557 601 514.2 601C471.3 601 428.7 601 385.8 601C343 601 300 601 257.2 601C214.3 601 171.7 601 128.8 601C86 601 43 601 21.5 601L0 601Z" fill="#581a49"></path><path d="M0 555L21.5 552.5C43 550 86 545 128.8 542.7C171.7 540.3 214.3 540.7 257.2 539.7C300 538.7 343 536.3 385.8 533.7C428.7 531 471.3 528 514.2 529.7C557 531.3 600 537.7 642.8 538.5C685.7 539.3 728.3 534.7 771.2 536.3C814 538 857 546 878.5 550L900 554L900 601L878.5 601C857 601 814 601 771.2 601C728.3 601 685.7 601 642.8 601C600 601 557 601 514.2 601C471.3 601 428.7 601 385.8 601C343 601 300 601 257.2 601C214.3 601 171.7 601 128.8 601C86 601 43 601 21.5 601L0 601Z" fill="#25082f"></path></svg>