<svg id="visual" viewBox="0 0 900 600" width="900" height="600" xmlns="http://www.w3.org/2000/svg" xmlns:xlink="http://www.w3.org/1999/xlink" version="1.1"><rect x="0" y="0" width="900" height="600" fill="#000000"></rect><path d="M0 371L21.5 359C43 347 86 323 128.8 312.2C171.7 301.3 214.3 303.7 257.2 295.7C300 287.7 343 269.3 385.8 262.3C428.7 255.3 471.3 259.7 514.2 264C557 268.3 600 272.7 642.8 284.7C685.7 296.7 728.3 316.3 771.2 319.2C814 322 857 308 878.5 301L900 294L900 601L878.5 601C857 601 814 601 771.2 601C728.3 601 685.7 601 642.8 601C600 601 557 601 514.2 601C471.3 601 428.7 601 385.8 601C343 601 300 601 257.2 601C214.3 601 171.7 601 128.8 601C86 601 43 601 21.5 601L0 601Z" fill="#fa7268"></path><path d="M0 362L21.5 370.5C43 379 86 396 128.8 388C171.7 380 214.3 347 257.2 347.7C300 348.3 343 382.7 385.8 388.8C428.7 395 471.3 373 514.2 367.8C557 362.7 600 374.3 642.8 387.3C685.7 400.3 728.3 414.7 771.2 416.5C814 418.3 857 407.7 878.5 402.3L900 397L900 601L878.5 601C857 601 814 601 771.2 601C728.3 601 685.7 601 642.8 601C600 601 557 601 514.2 601C471.3 601 428.7 601 385.8 601C343 601 300 601 257.2 601C214.3 601 171.7 601 128.8 601C86 601 43 601 21.5 601L0 601Z" fill="#c84d65"></path><path d="M0 448L21.5 444C43 440 86 432 128.8 435.7C171.7 439.3 214.3 454.7 257.2 459C300 463.3 343 456.7 385.8 456.7C428.7 456.7 471.3 463.3 514.2 452.5C557 441.7 600 413.3 642.8 407.2C685.7 401 728.3 417 771.2 424C814 431 857 429 878.5 428L900 427L900 601L878.5 601C857 601 814 601 771.2 601C728.3 601 685.7 601 642.8 601C600 601 557 601 514.2 601C471.3 601 428.7 601 385.8 601C343 601 300 601 257.2 601C214.3 601 171.7 601 128.8 601C86 601 43 601 21.5 601L0 601Z" fill="#90305b"></path><path d="M0 493L21.5 489.2C43 485.3 86 477.7 128.8 471C171.7 464.3 214.3 458.7 257.2 464.3C300 470 343 487 385.8 492.2C428.7 497.3 471.3 490.7 514.2 486.8C557 483 600 482 642.8 483.7C685.7 485.3 728.3 489.7 771.2 492.2C814 494.7 857 495.3 878.5 495.7L900 496L900 601L878.5 601C857 601 814 601 771.2 601C728.3 601 685.7 601 642.8 601C600 601 557 601 514.2 601C471.3 601 428.7 601 385.8 601C343 601 300 601 257.2 601C214.3 601 171.7 601 128.8 601C86 601 43 601 21.5 601L0 601Z" fill="#581a49"></path><path d="M0 559L21.5 552C43 545 86 531 128.8 522.8C171.7 514.7 214.3 512.3 257.2 515.5C300 518.7 343 527.3 385.8 535.2C428.7 543 471.3 550 514.2 554.7C557 559.3 600 561.7 642.8 561.8C685.7 562 728.3 560 771.2 550.3C814 540.7 857 523.3 878.5 514.7L900 506L900 601L878.5 601C857 601 814 601 771.2 601C728.3 601 685.7 601 642.8 601C600 601 557 601 514.2 601C471.3 601 428.7 601 385.8 601C343 601 300 601 257.2 601C214.3 601 171.7 601 128.8 601C86 601 43 601 21.5 601L0 601Z" fill="#25082f"></path></svg>