<svg id="visual" viewBox="0 0 900 600" width="900" height="600" xmlns="http://www.w3.org/2000/svg" xmlns:xlink="http://www.w3.org/1999/xlink" version="1.1"><rect x="0" y="0" width="900" height="600" fill="#000000"></rect><path d="M0 386L21.5 368.3C43 350.7 86 315.3 128.8 294.5C171.7 273.7 214.3 267.3 257.2 262.3C300 257.3 343 253.7 385.8 256.7C428.7 259.7 471.3 269.3 514.2 289.8C557 310.3 600 341.7 642.8 358C685.7 374.3 728.3 375.7 771.2 375C814 374.3 857 371.7 878.5 370.3L900 369L900 601L878.5 601C857 601 814 601 771.2 601C728.3 601 685.7 601 642.8 601C600 601 557 601 514.2 601C471.3 601 428.7 601 385.8 601C343 601 300 601 257.2 601C214.3 601 171.7 601 128.8 601C86 601 43 601 21.5 601L0 601Z" fill="#fa7268"></path><path d="M0 412L21.5 401.8C43 391.7 86 371.3 128.8 363.5C171.7 355.7 214.3 360.3 257.2 359.2C300 358 343 351 385.8 347.7C428.7 344.3 471.3 344.7 514.2 357.5C557 370.3 600 395.7 642.8 401.3C685.7 407 728.3 393 771.2 381.7C814 370.3 857 361.7 878.5 357.3L900 353L900 601L878.5 601C857 601 814 601 771.2 601C728.3 601 685.7 601 642.8 601C600 601 557 601 514.2 601C471.3 601 428.7 601 385.8 601C343 601 300 601 257.2 601C214.3 601 171.7 601 128.8 601C86 601 43 601 21.5 601L0 601Z" fill="#c84d65"></path><path d="M0 440L21.5 445.2C43 450.3 86 460.7 128.8 451.5C171.7 442.3 214.3 413.7 257.2 401.5C300 389.3 343 393.7 385.8 401C428.7 408.3 471.3 418.7 514.2 418.7C557 418.7 600 408.3 642.8 409.7C685.7 411 728.3 424 771.2 429C814 434 857 431 878.5 429.5L900 428L900 601L878.5 601C857 601 814 601 771.2 601C728.3 601 685.7 601 642.8 601C600 601 557 601 514.2 601C471.3 601 428.7 601 385.8 601C343 601 300 601 257.2 601C214.3 601 171.7 601 128.8 601C86 601 43 601 21.5 601L0 601Z" fill="#90305b"></path><path d="M0 496L21.5 498.3C43 500.7 86 505.3 128.8 504.2C171.7 503 214.3 496 257.2 495.3C300 494.7 343 500.3 385.8 499.7C428.7 499 471.3 492 514.2 483.5C557 475 600 465 642.8 465.2C685.7 465.3 728.3 475.7 771.2 486C814 496.3 857 506.7 878.5 511.8L900 517L900 601L878.5 601C857 601 814 601 771.2 601C728.3 601 685.7 601 642.8 601C600 601 557 601 514.2 601C471.3 601 428.7 601 385.8 601C343 601 300 601 257.2 601C214.3 601 171.7 601 128.8 601C86 601 43 601 21.5 601L0 601Z" fill="#581a49"></path><path d="M0 545L21.5 541.5C43 538 86 531 128.8 529.5C171.7 528 214.3 532 257.2 538.5C300 545 343 554 385.8 557C428.7 560 471.3 557 514.2 557C557 557 600 560 642.8 559.3C685.7 558.7 728.3 554.3 771.2 544.8C814 535.3 857 520.7 878.5 513.3L900 506L900 601L878.5 601C857 601 814 601 771.2 601C728.3 601 685.7 601 642.8 601C600 601 557 601 514.2 601C471.3 601 428.7 601 385.8 601C343 601 300 601 257.2 601C214.3 601 171.7 601 128.8 601C86 601 43 601 21.5 601L0 601Z" fill="#25082f"></path></svg>