<svg id="visual" viewBox="0 0 900 600" width="900" height="600" xmlns="http://www.w3.org/2000/svg" xmlns:xlink="http://www.w3.org/1999/xlink" version="1.1"><rect x="0" y="0" width="900" height="600" fill="#001122"></rect><path d="M0 404L21.5 411.5C43 419 86 434 128.8 429.8C171.7 425.7 214.3 402.3 257.2 394.5C300 386.7 343 394.3 385.8 397.3C428.7 400.3 471.3 398.7 514.2 391.3C557 384 600 371 642.8 373.5C685.7 376 728.3 394 771.2 403.8C814 413.7 857 415.3 878.5 416.2L900 417L900 601L878.5 601C857 601 814 601 771.2 601C728.3 601 685.7 601 642.8 601C600 601 557 601 514.2 601C471.3 601 428.7 601 385.8 601C343 601 300 601 257.2 601C214.3 601 171.7 601 128.8 601C86 601 43 601 21.5 601L0 601Z" fill="#ff24a9"></path><path d="M0 422L21.5 431.7C43 441.3 86 460.7 128.8 457.5C171.7 454.3 214.3 428.7 257.2 423.3C300 418 343 433 385.8 443.5C428.7 454 471.3 460 514.2 452.2C557 444.3 600 422.7 642.8 422C685.7 421.3 728.3 441.7 771.2 445.3C814 449 857 436 878.5 429.5L900 423L900 601L878.5 601C857 601 814 601 771.2 601C728.3 601 685.7 601 642.8 601C600 601 557 601 514.2 601C471.3 601 428.7 601 385.8 601C343 601 300 601 257.2 601C214.3 601 171.7 601 128.8 601C86 601 43 601 21.5 601L0 601Z" fill="#c4228f"></path><path d="M0 488L21.5 482.8C43 477.7 86 467.3 128.8 470.7C171.7 474 214.3 491 257.2 491.8C300 492.7 343 477.3 385.8 475C428.7 472.7 471.3 483.3 514.2 481.8C557 480.3 600 466.7 642.8 461C685.7 455.3 728.3 457.7 771.2 458.5C814 459.3 857 458.7 878.5 458.3L900 458L900 601L878.5 601C857 601 814 601 771.2 601C728.3 601 685.7 601 642.8 601C600 601 557 601 514.2 601C471.3 601 428.7 601 385.8 601C343 601 300 601 257.2 601C214.3 601 171.7 601 128.8 601C86 601 43 601 21.5 601L0 601Z" fill="#8d1c71"></path><path d="M0 525L21.5 524.8C43 524.7 86 524.3 128.8 518.3C171.7 512.3 214.3 500.7 257.2 498.2C300 495.7 343 502.3 385.8 502.3C428.7 502.3 471.3 495.7 514.2 491.5C557 487.3 600 485.7 642.8 488.7C685.7 491.7 728.3 499.3 771.2 503.2C814 507 857 507 878.5 507L900 507L900 601L878.5 601C857 601 814 601 771.2 601C728.3 601 685.7 601 642.8 601C600 601 557 601 514.2 601C471.3 601 428.7 601 385.8 601C343 601 300 601 257.2 601C214.3 601 171.7 601 128.8 601C86 601 43 601 21.5 601L0 601Z" fill="#5b1451"></path><path d="M0 553L21.5 548.5C43 544 86 535 128.8 534.8C171.7 534.7 214.3 543.3 257.2 546.7C300 550 343 548 385.8 547.8C428.7 547.7 471.3 549.3 514.2 548.2C557 547 600 543 642.8 543C685.7 543 728.3 547 771.2 547.3C814 547.7 857 544.3 878.5 542.7L900 541L900 601L878.5 601C857 601 814 601 771.2 601C728.3 601 685.7 601 642.8 601C600 601 557 601 514.2 601C471.3 601 428.7 601 385.8 601C343 601 300 601 257.2 601C214.3 601 171.7 601 128.8 601C86 601 43 601 21.5 601L0 601Z" fill="#300930"></path></svg>